M48
; DRILL file {KiCad 9.0.7-9.0.7~ubuntu24.04.1} date 2026-06-04T12:29:19+0100
; FORMAT={-:-/ absolute / metric / decimal}
; #@! TF.CreationDate,2026-06-04T12:29:19+01:00
; #@! TF.GenerationSoftware,Kicad,Pcbnew,9.0.7-9.0.7~ubuntu24.04.1
; #@! TF.FileFunction,Plated,1,2,PTH
FMAT,2
METRIC
; #@! TA.AperFunction,Plated,PTH,ComponentDrill
T1C0.500
; #@! TA.AperFunction,Plated,PTH,ComponentDrill
T2C0.600
; #@! TA.AperFunction,Plated,PTH,ComponentDrill
T3C0.750
; #@! TA.AperFunction,Plated,PTH,ComponentDrill
T4C0.770
; #@! TA.AperFunction,Plated,PTH,ComponentDrill
T5C0.800
; #@! TA.AperFunction,Plated,PTH,ComponentDrill
T6C1.000
; #@! TA.AperFunction,Plated,PTH,ComponentDrill
T7C1.400
%
G90
G05
T1
X124.65Y-105.375
X151.7Y-75.125
X174.965Y-109.895
X203.2Y-65.125
T2
X153.665Y-116.825
X153.665Y-118.095
X153.665Y-119.365
T3
X93.3Y-76.825
X93.3Y-78.825
X105.95Y-115.375
X105.95Y-117.375
X160.0Y-99.325
X160.0Y-101.325
T4
X187.642Y-72.105
X187.642Y-74.645
X187.642Y-77.185
X187.642Y-79.725
X187.642Y-82.265
X187.642Y-84.805
X187.642Y-87.345
X195.582Y-72.105
X195.582Y-74.645
X195.582Y-77.185
X195.582Y-79.725
X195.582Y-82.265
X195.582Y-84.805
X195.582Y-87.345
T5
X93.19Y-72.225
X93.29Y-83.225
X100.6Y-76.975
X100.6Y-79.475
X100.65Y-123.975
X100.65Y-126.475
X100.81Y-72.225
X100.91Y-83.225
X101.59Y-67.725
X102.24Y-109.575
X104.15Y-122.565
X104.15Y-130.185
X104.9Y-74.275
X104.9Y-76.775
X105.0Y-83.275
X105.0Y-85.775
X108.25Y-122.675
X108.25Y-130.295
X109.1Y-74.345
X109.1Y-76.885
X109.1Y-79.425
X109.1Y-81.965
X109.19Y-86.725
X109.21Y-67.725
X109.29Y-90.925
X109.38Y-95.325
X109.86Y-109.575
X112.29Y-67.725
X112.35Y-122.665
X112.35Y-130.285
X114.34Y-108.075
X114.85Y-111.635
X114.85Y-114.175
X114.85Y-116.715
X114.85Y-119.255
X116.54Y-126.975
X116.81Y-86.725
X116.91Y-90.925
X116.97Y-74.345
X116.97Y-76.885
X116.97Y-79.425
X116.97Y-81.965
X117.0Y-95.325
X119.91Y-67.725
X121.49Y-88.725
X121.88Y-95.125
X121.96Y-108.075
X122.72Y-111.635
X122.72Y-114.175
X122.72Y-116.715
X122.72Y-119.255
X124.16Y-126.975
X127.315Y-111.565
X127.315Y-114.105
X127.315Y-116.645
X127.315Y-119.185
X127.44Y-107.675
X127.64Y-126.875
X129.11Y-88.725
X129.5Y-95.125
X129.6Y-71.715
X129.6Y-79.335
X133.935Y-79.535
X133.935Y-87.155
X135.06Y-107.675
X135.185Y-111.565
X135.185Y-114.105
X135.185Y-116.645
X135.185Y-119.185
X135.26Y-126.875
X138.9Y-82.245
X138.9Y-84.785
X138.9Y-87.325
X138.9Y-89.865
X139.115Y-78.155
X139.15Y-119.375
X139.15Y-126.995
X146.735Y-78.155
X146.77Y-82.245
X146.77Y-84.785
X146.77Y-87.325
X146.77Y-89.865
X150.55Y-99.7
X151.535Y-79.545
X151.535Y-87.165
X153.05Y-99.7
X154.045Y-125.995
X154.355Y-110.095
X158.265Y-113.785
X158.265Y-121.405
X158.6Y-88.325
X158.6Y-90.825
X160.7Y-94.225
X161.665Y-125.995
X161.975Y-110.095
X162.4Y-78.005
X162.4Y-85.625
X163.33Y-114.485
X163.33Y-117.025
X163.33Y-119.565
X163.33Y-122.105
X164.855Y-125.995
X166.2Y-72.325
X166.2Y-79.945
X166.2Y-82.915
X166.2Y-90.535
X166.85Y-110.225
X168.32Y-94.225
X168.5Y-98.6
X168.5Y-103.6
X169.35Y-110.225
X170.09Y-72.725
X170.665Y-77.315
X170.665Y-79.855
X170.665Y-82.395
X170.665Y-84.935
X170.9Y-92.525
X171.08Y-88.825
X171.2Y-114.485
X171.2Y-117.025
X171.2Y-119.565
X171.2Y-122.105
X172.475Y-125.995
X174.965Y-114.195
X174.965Y-121.815
X177.71Y-72.725
X177.79Y-68.625
X178.52Y-92.525
X178.535Y-77.315
X178.535Y-79.855
X178.535Y-82.395
X178.535Y-84.935
X178.7Y-88.825
X182.05Y-81.225
X182.9Y-95.0
X182.9Y-97.5
X184.55Y-81.225
X185.41Y-68.625
X187.89Y-92.525
X187.89Y-96.225
X195.51Y-92.525
X195.51Y-96.225
X198.19Y-71.125
X199.8Y-90.515
X199.8Y-98.135
X205.5Y-75.825
X205.5Y-78.325
X205.81Y-71.125
T6
X143.8Y-59.825
X146.3Y-59.825
X153.2Y-59.925
X155.7Y-59.925
T7
X123.1Y-73.345
X123.1Y-83.505
X200.2Y-76.045
X200.2Y-86.205
M30
